<?xml version="1.0" encoding="UTF-8" standalone="no"?>
<svg
   xmlns:dc="http://purl.org/dc/elements/1.1/"
   xmlns:cc="http://creativecommons.org/ns#"
   xmlns:rdf="http://www.w3.org/1999/02/22-rdf-syntax-ns#"
   xmlns:svg="http://www.w3.org/2000/svg"
   xmlns="http://www.w3.org/2000/svg"
   xmlns:sodipodi="http://sodipodi.sourceforge.net/DTD/sodipodi-0.dtd"
   xmlns:inkscape="http://www.inkscape.org/namespaces/inkscape"
   version="1.1"
   id="svg2"
   xml:space="preserve"
   width="666.66669"
   height="420"
   viewBox="0 0 666.66669 420"
   sodipodi:docname="logo medicel con web.ai"><metadata
     id="metadata8"><rdf:RDF><cc:Work
         rdf:about=""><dc:format>image/svg+xml</dc:format><dc:type
           rdf:resource="http://purl.org/dc/dcmitype/StillImage" /></cc:Work></rdf:RDF></metadata><defs
     id="defs6"><clipPath
       clipPathUnits="userSpaceOnUse"
       id="clipPath18"><path
         d="M 0,315 H 500 V 0 H 0 Z"
         id="path16" /></clipPath><linearGradient
       x1="0"
       y1="0"
       x2="1"
       y2="0"
       gradientUnits="userSpaceOnUse"
       gradientTransform="matrix(0,310.1933,310.1933,0,155.09627,2.4033494)"
       spreadMethod="pad"
       id="linearGradient148"><stop
         style="stop-opacity:1;stop-color:#003399"
         offset="0"
         id="stop142" /><stop
         style="stop-opacity:1;stop-color:#006699"
         offset="0.349162"
         id="stop144" /><stop
         style="stop-opacity:1;stop-color:#0faad3"
         offset="1"
         id="stop146" /></linearGradient><clipPath
       clipPathUnits="userSpaceOnUse"
       id="clipPath158"><path
         d="M 0,315 H 500 V 0 H 0 Z"
         id="path156" /></clipPath></defs><sodipodi:namedview
     pagecolor="#ffffff"
     bordercolor="#666666"
     borderopacity="1"
     objecttolerance="10"
     gridtolerance="10"
     guidetolerance="10"
     inkscape:pageopacity="0"
     inkscape:pageshadow="2"
     inkscape:window-width="640"
     inkscape:window-height="480"
     id="namedview4" /><g
     id="g10"
     inkscape:groupmode="layer"
     inkscape:label="logo medicel con web"
     transform="matrix(1.3333333,0,0,-1.3333333,0,420)"><g
       id="g12"><g
         id="g14"
         clip-path="url(#clipPath18)"><g
           id="g20"
           transform="translate(256.8535,110.9414)"><path
             d="m 0,0 c -2.092,-0.528 -3.968,-1.473 -6.186,-2.007 -9.079,-2.189 -15.995,-4.34 -19.93,5.126 -2.669,6.423 -11.629,6.11 -14.156,-0.021 -2.531,-6.128 3.596,-12.667 10.019,-9.999 9.465,3.935 13.408,-1.117 18.299,-9.075 1.195,-1.942 1.86,-3.934 2.97,-5.786 6.298,-10.497 21.627,-8.931 26.121,1.954 C 21.626,-8.923 11.872,2.997 0,0"
             style="fill:#e4e5e6;fill-opacity:1;fill-rule:evenodd;stroke:none"
             id="path22" /></g><g
           id="g24"
           transform="translate(53.3101,110.9414)"><path
             d="m 0,0 c 2.092,-0.528 3.968,-1.473 6.186,-2.007 9.079,-2.189 15.995,-4.34 19.931,5.126 2.668,6.423 11.628,6.11 14.155,-0.021 2.531,-6.128 -3.596,-12.667 -10.018,-9.999 -9.466,3.935 -13.409,-1.117 -18.3,-9.075 -1.195,-1.942 -1.859,-3.934 -2.97,-5.786 -6.299,-10.497 -21.626,-8.931 -26.121,1.954 C -21.626,-8.923 -11.872,2.997 0,0"
             style="fill:#e4e5e6;fill-opacity:1;fill-rule:evenodd;stroke:none"
             id="path26" /></g><g
           id="g28"
           transform="translate(258.2578,206.3423)"><path
             d="m 0,0 c -1.931,0.487 -3.662,1.359 -5.71,1.852 -8.38,2.021 -14.764,4.006 -18.397,-4.732 -2.463,-5.928 -10.733,-5.639 -13.067,0.02 -2.335,5.656 3.32,11.693 9.248,9.23 8.738,-3.632 12.377,1.03 16.892,8.376 1.103,1.793 1.716,3.632 2.742,5.341 5.813,9.69 19.962,8.245 24.11,-1.803 C 19.962,8.236 10.958,-2.767 0,0"
             style="fill:#e4e5e6;fill-opacity:1;fill-rule:evenodd;stroke:none"
             id="path30" /></g><g
           id="g32"
           transform="translate(52.437,206.3423)"><path
             d="M 0,0 C 1.931,0.487 3.663,1.359 5.71,1.852 14.09,3.873 20.474,5.858 24.107,-2.88 26.57,-8.808 34.84,-8.519 37.174,-2.86 39.51,2.796 33.854,8.833 27.926,6.37 19.188,2.738 15.549,7.4 11.034,14.746 9.931,16.539 9.318,18.378 8.292,20.087 2.479,29.777 -11.669,28.332 -15.818,18.284 -19.962,8.236 -10.958,-2.767 0,0"
             style="fill:#e4e5e6;fill-opacity:1;fill-rule:evenodd;stroke:none"
             id="path34" /></g><g
           id="g36"
           transform="translate(215.4492,81.3916)"><path
             d="m 0,0 c -3.272,-3.271 -3.272,-8.579 0,-11.849 3.272,-3.272 8.577,-3.272 11.851,0 3.272,3.27 3.272,8.578 0,11.849 C 8.577,3.271 3.272,3.271 0,0"
             style="fill:#e4e5e6;fill-opacity:1;fill-rule:evenodd;stroke:none"
             id="path38" /></g><g
           id="g40"
           transform="translate(78.8628,81.3916)"><path
             d="m 0,0 c -3.27,-3.268 -3.27,-8.575 0,-11.849 3.273,-3.271 8.578,-3.271 11.851,0 3.27,3.274 3.27,8.581 0,11.849 C 8.578,3.273 3.273,3.273 0,0"
             style="fill:#e4e5e6;fill-opacity:1;fill-rule:evenodd;stroke:none"
             id="path42" /></g><g
           id="g44"
           transform="translate(284.8467,146.0107)"><path
             d="m 0,0 c -2.984,0 -5.404,-2.417 -5.404,-5.401 0,-2.986 2.42,-5.404 5.404,-5.404 2.984,0 5.403,2.418 5.403,5.404 C 5.403,-2.417 2.984,0 0,0"
             style="fill:#e4e5e6;fill-opacity:1;fill-rule:evenodd;stroke:none"
             id="path46" /></g><g
           id="g48"
           transform="translate(284.667,181.4653)"><path
             d="m 0,0 c -2.984,0 -5.404,-2.417 -5.404,-5.401 0,-2.986 2.42,-5.404 5.404,-5.404 2.983,0 5.403,2.418 5.403,5.404 C 5.403,-2.417 2.983,0 0,0"
             style="fill:#e4e5e6;fill-opacity:1;fill-rule:evenodd;stroke:none"
             id="path50" /></g><g
           id="g52"
           transform="translate(199.2417,97.6006)"><path
             d="m 0,0 c -2.111,-2.112 -2.111,-5.533 0,-7.642 2.11,-2.11 5.533,-2.11 7.641,0 2.111,2.109 2.111,5.53 0,7.642 C 5.533,2.108 2.11,2.108 0,0"
             style="fill:#e4e5e6;fill-opacity:1;fill-rule:evenodd;stroke:none"
             id="path54" /></g><g
           id="g56"
           transform="translate(137.4287,101.2061)"><path
             d="m 0,0 c -6.86,2.83 -14.18,-4.028 -11.194,-11.213 4.403,-10.595 -4.837,-21.552 -13.743,-27.027 -2.174,-1.334 -4.405,-2.078 -6.476,-3.32 -11.746,-7.052 -9.997,-24.201 2.186,-29.231 12.181,-5.029 25.522,5.892 22.169,19.175 -0.591,2.34 -1.646,4.439 -2.246,6.924 -2.45,10.159 -1.27,24.446 9.326,28.848 C 7.209,-12.858 6.859,-2.831 0,0"
             style="fill:#e4e5e6;fill-opacity:1;fill-rule:evenodd;stroke:none"
             id="path58" /></g><g
           id="g60"
           transform="translate(203.9761,58.7139)"><path
             d="m 0,0 c -2.073,1.243 -4.305,1.977 -6.483,3.31 -8.918,5.453 -18.185,16.388 -13.806,26.995 2.97,7.193 -4.364,14.033 -11.218,11.187 -6.851,-2.849 -7.18,-12.875 0.014,-15.842 10.605,-4.382 11.82,-18.662 9.394,-28.829 -0.594,-2.485 -1.649,-4.588 -2.233,-6.928 C -27.653,-23.4 -14.288,-34.29 -2.118,-29.235 10.053,-24.176 11.765,-7.021 0,0"
             style="fill:#e4e5e6;fill-opacity:1;fill-rule:evenodd;stroke:none"
             id="path62" /></g><g
           id="g64"
           transform="translate(155.0679,56.8638)"><path
             d="m 0,0 c -4.626,0 -8.378,-3.754 -8.378,-8.379 0,-4.627 3.752,-8.377 8.378,-8.377 4.628,0 8.381,3.75 8.381,8.377 C 8.381,-3.754 4.628,0 0,0"
             style="fill:#e4e5e6;fill-opacity:1;fill-rule:evenodd;stroke:none"
             id="path66" /></g><g
           id="g68"
           transform="translate(155.0674,85.1274)"><path
             d="m 0,0 c -2.983,0 -5.402,-2.417 -5.402,-5.404 0,-2.983 2.419,-5.404 5.402,-5.404 2.986,0 5.405,2.421 5.405,5.404 C 5.405,-2.417 2.986,0 0,0"
             style="fill:#e4e5e6;fill-opacity:1;fill-rule:evenodd;stroke:none"
             id="path70" /></g><g
           id="g72"
           transform="translate(155.0674,113.3906)"><path
             d="m 0,0 c -2.983,0 -5.402,-2.416 -5.402,-5.404 0,-2.983 2.419,-5.404 5.402,-5.404 2.986,0 5.405,2.421 5.405,5.404 C 5.405,-2.416 2.986,0 0,0"
             style="fill:#e4e5e6;fill-opacity:1;fill-rule:evenodd;stroke:none"
             id="path74" /></g><g
           id="g76"
           transform="translate(99.2798,97.6006)"><path
             d="m 0,0 c -2.111,-2.109 -2.111,-5.53 0,-7.642 2.109,-2.109 5.53,-2.109 7.642,0 C 9.75,-5.53 9.75,-2.109 7.642,0 5.53,2.11 2.109,2.11 0,0"
             style="fill:#e4e5e6;fill-opacity:1;fill-rule:evenodd;stroke:none"
             id="path78" /></g><g
           id="g80"
           transform="translate(199.2417,218.127)"><path
             d="m 0,0 c -2.111,2.112 -2.111,5.532 0,7.642 2.11,2.11 5.533,2.11 7.641,0 C 9.752,5.532 9.752,2.112 7.641,0 5.533,-2.108 2.11,-2.108 0,0"
             style="fill:#e4e5e6;fill-opacity:1;fill-rule:evenodd;stroke:none"
             id="path82" /></g><g
           id="g84"
           transform="translate(137.4287,214.521)"><path
             d="m 0,0 c -6.86,-2.83 -14.18,4.028 -11.194,11.213 4.403,10.595 -4.837,21.553 -13.743,27.027 -2.174,1.334 -4.405,2.078 -6.476,3.32 -11.746,7.052 -9.997,24.201 2.186,29.231 C -17.046,75.82 -3.705,64.9 -7.058,51.617 -7.649,49.276 -8.704,47.178 -9.304,44.693 -11.754,34.534 -10.574,20.246 0.022,15.844 7.209,12.858 6.859,2.831 0,0"
             style="fill:#e4e5e6;fill-opacity:1;fill-rule:evenodd;stroke:none"
             id="path86" /></g><g
           id="g88"
           transform="translate(204.1436,256.0205)"><path
             d="m 0,0 c -2.073,-1.243 -4.305,-1.977 -6.483,-3.31 -8.918,-5.453 -18.185,-16.388 -13.806,-26.995 2.97,-7.193 -4.364,-14.033 -11.218,-11.187 -6.851,2.849 -7.18,12.875 0.014,15.842 10.605,4.382 11.82,18.662 9.394,28.829 -0.594,2.485 -1.649,4.588 -2.233,6.928 C -27.653,23.4 -14.288,34.29 -2.118,29.235 10.053,24.176 11.765,7.021 0,0"
             style="fill:#e4e5e6;fill-opacity:1;fill-rule:evenodd;stroke:none"
             id="path90" /></g><g
           id="g92"
           transform="translate(155.0679,258.8633)"><path
             d="m 0,0 c -4.626,0 -8.378,3.754 -8.378,8.38 0,4.626 3.752,8.376 8.378,8.376 4.628,0 8.381,-3.75 8.381,-8.376 C 8.381,3.754 4.628,0 0,0"
             style="fill:#e4e5e6;fill-opacity:1;fill-rule:evenodd;stroke:none"
             id="path94" /></g><g
           id="g96"
           transform="translate(155.0674,230.6001)"><path
             d="m 0,0 c -2.983,0 -5.402,2.416 -5.402,5.404 0,2.983 2.419,5.404 5.402,5.404 2.986,0 5.405,-2.421 5.405,-5.404 C 5.405,2.416 2.986,0 0,0"
             style="fill:#e4e5e6;fill-opacity:1;fill-rule:evenodd;stroke:none"
             id="path98" /></g><g
           id="g100"
           transform="translate(155.0674,202.3364)"><path
             d="m 0,0 c -2.983,0 -5.402,2.417 -5.402,5.404 0,2.983 2.419,5.404 5.402,5.404 2.986,0 5.405,-2.421 5.405,-5.404 C 5.405,2.417 2.986,0 0,0"
             style="fill:#e4e5e6;fill-opacity:1;fill-rule:evenodd;stroke:none"
             id="path102" /></g><g
           id="g104"
           transform="translate(99.2798,218.1265)"><path
             d="m 0,0 c -2.111,2.109 -2.111,5.53 0,7.642 2.109,2.109 5.53,2.109 7.642,0 C 9.75,5.53 9.75,2.109 7.642,0 5.53,-2.11 2.109,-2.11 0,0"
             style="fill:#e4e5e6;fill-opacity:1;fill-rule:evenodd;stroke:none"
             id="path106" /></g><g
           id="g108"
           transform="translate(25.5337,181.4653)"><path
             d="m 0,0 c -2.985,0 -5.404,-2.417 -5.404,-5.401 0,-2.986 2.419,-5.404 5.404,-5.404 2.984,0 5.403,2.418 5.403,5.404 C 5.403,-2.417 2.984,0 0,0"
             style="fill:#e4e5e6;fill-opacity:1;fill-rule:evenodd;stroke:none"
             id="path110" /></g><g
           id="g112"
           transform="translate(25.3525,146.2163)"><path
             d="m 0,0 c -2.984,0 -5.404,-2.42 -5.404,-5.405 0,-2.984 2.42,-5.402 5.404,-5.402 2.983,0 5.401,2.418 5.401,5.402 C 5.401,-2.42 2.983,0 0,0"
             style="fill:#e4e5e6;fill-opacity:1;fill-rule:evenodd;stroke:none"
             id="path114" /></g><g
           id="g116"
           transform="translate(104.4263,190.582)"><path
             d="m 0,0 v -63.342 h -6.425 v 50.675 L -31.31,-55.289 h -3.167 l -24.885,42.35 v -50.403 h -6.424 V 0 h 5.519 L -32.757,-46.963 -5.521,0 Z"
             style="fill:#003399;fill-opacity:1;fill-rule:nonzero;stroke:none"
             id="path118" /></g><g
           id="g120"
           transform="translate(170.3062,133.0312)"><path
             d="M 0,0 V -5.792 H -44.792 V 57.551 H -1.358 V 51.76 H -38.097 V 29.228 H -5.339 V 23.527 H -38.097 V 0 Z"
             style="fill:#003399;fill-opacity:1;fill-rule:nonzero;stroke:none"
             id="path122" /></g><g
           id="g124"
           transform="translate(211.9331,133.0312)"><path
             d="M 0,0 C 16.831,0 27.69,10.677 27.69,25.88 27.69,41.082 16.831,51.76 0,51.76 H -18.731 V 0 Z m -25.427,57.551 h 25.79 c 20.269,0 33.932,-13.03 33.932,-31.671 0,-18.641 -13.663,-31.672 -33.932,-31.672 h -25.79 z"
             style="fill:#003399;fill-opacity:1;fill-rule:nonzero;stroke:none"
             id="path126" /></g><path
           d="m 261.706,190.582 h 6.696 V 127.24 h -6.696 z"
           style="fill:#003399;fill-opacity:1;fill-rule:nonzero;stroke:none"
           id="path128" /></g></g><g
       id="g130"><g
         id="g132"><g
           id="g138"><g
             id="g140"><path
               d="M 0,157.499 C 0,71.979 69.576,2.403 155.097,2.403 v 0 c 85.522,0 155.095,69.576 155.095,155.096 v 0 c 0,85.522 -69.573,155.098 -155.095,155.098 v 0 C 69.576,312.597 0,243.021 0,157.499 m 10.522,0 c 0,79.718 64.856,144.574 144.575,144.574 v 0 c 79.717,0 144.574,-64.856 144.574,-144.574 v 0 c 0,-79.717 -64.857,-144.574 -144.574,-144.574 v 0 c -79.719,0 -144.575,64.857 -144.575,144.574"
               style="fill:url(#linearGradient148);stroke:none"
               id="path150" /></g></g></g></g><g
       id="g152"><g
         id="g154"
         clip-path="url(#clipPath158)"><g
           id="g160"
           transform="translate(325.7109,158.9111)"><path
             d="m 0,0 c 0,18.551 14.116,32.215 33.21,32.215 9.228,0 17.554,-3.077 23.165,-9.231 L 52.122,18.732 C 46.964,23.98 40.63,26.242 33.39,26.242 18.097,26.242 6.604,15.022 6.604,0 c 0,-15.021 11.493,-26.242 26.786,-26.242 7.24,0 13.574,2.263 18.732,7.6 l 4.253,-4.251 C 50.764,-29.047 42.438,-32.214 33.119,-32.214 14.116,-32.214 0,-18.551 0,0"
             style="fill:#003399;fill-opacity:1;fill-rule:nonzero;stroke:none"
             id="path162" /></g><g
           id="g164"
           transform="translate(441.6309,133.0308)"><path
             d="m 0,0 v -5.791 h -44.792 v 63.343 h 43.435 v -5.791 h -36.74 V 29.229 H -5.339 V 23.528 H -38.097 V 0 Z"
             style="fill:#003399;fill-opacity:1;fill-rule:nonzero;stroke:none"
             id="path166" /></g><g
           id="g168"
           transform="translate(457.832,190.583)"><path
             d="m 0,0 h 6.695 v -57.552 h 35.473 v -5.791 H 0 Z"
             style="fill:#003399;fill-opacity:1;fill-rule:nonzero;stroke:none"
             id="path170" /></g><g
           id="g172"
           transform="translate(331.7285,74.313)"><path
             d="M 0,0 0.413,-2.405 H 0.498 L 1.011,0 3.686,10.375 H 5.109 L 7.756,0 8.282,-2.519 H 8.368 L 8.838,0 l 2.22,10.375 h 1.736 L 9.079,-5.023 H 7.656 L 4.952,5.437 4.397,7.898 H 4.312 L 3.785,5.437 1.11,-5.023 h -1.423 l -3.701,15.398 h 1.723 z"
             style="fill:#0faad3;fill-opacity:1;fill-rule:nonzero;stroke:none"
             id="path174" /></g><g
           id="g176"
           transform="translate(350.5498,74.313)"><path
             d="M 0,0 0.412,-2.405 H 0.498 L 1.01,0 3.686,10.375 H 5.108 L 7.756,0 8.282,-2.519 H 8.367 L 8.837,0 11.058,10.375 h 1.736 L 9.079,-5.023 H 7.656 L 4.952,5.437 4.397,7.898 H 4.312 L 3.785,5.437 1.109,-5.023 h -1.422 l -3.701,15.398 h 1.722 z"
             style="fill:#0faad3;fill-opacity:1;fill-rule:nonzero;stroke:none"
             id="path178" /></g><g
           id="g180"
           transform="translate(369.3691,74.313)"><path
             d="M 0,0 0.413,-2.405 H 0.498 L 1.011,0 3.686,10.375 H 5.109 L 7.756,0 8.283,-2.519 H 8.368 L 8.838,0 l 2.22,10.375 h 1.736 L 9.08,-5.023 H 7.656 L 4.952,5.437 4.397,7.898 H 4.312 L 3.786,5.437 1.11,-5.023 h -1.422 l -3.701,15.398 h 1.722 z"
             style="fill:#0faad3;fill-opacity:1;fill-rule:nonzero;stroke:none"
             id="path182" /></g><path
           d="m 385.515,69.29 h -1.85 v 2.362 h 1.85 z"
           style="fill:#0faad3;fill-opacity:1;fill-rule:nonzero;stroke:none"
           id="path184" /><g
           id="g186"
           transform="translate(391.542,84.6875)"><path
             d="m 0,0 0.142,-2.391 c 0.408,0.854 0.949,1.514 1.623,1.978 0.673,0.465 1.465,0.698 2.376,0.698 0.93,0 1.713,-0.273 2.348,-0.819 0.635,-0.546 1.101,-1.373 1.395,-2.483 0.379,1.025 0.918,1.831 1.615,2.419 0.697,0.589 1.539,0.883 2.526,0.883 1.347,0 2.393,-0.548 3.138,-1.644 0.745,-1.096 1.117,-2.777 1.117,-5.045 v -8.994 h -1.721 v 9.023 c 0,1.887 -0.257,3.216 -0.769,3.984 -0.513,0.769 -1.243,1.153 -2.192,1.153 -0.996,0 -1.774,-0.427 -2.333,-1.281 C 8.704,-3.373 8.362,-4.445 8.239,-5.735 v -0.398 -9.265 H 6.532 v 9.008 c 0,1.85 -0.263,3.169 -0.79,3.956 -0.526,0.788 -1.26,1.182 -2.199,1.182 -0.901,0 -1.624,-0.272 -2.17,-0.818 C 0.827,-2.616 0.436,-3.363 0.199,-4.312 V -15.398 H -1.509 V 0 Z"
             style="fill:#0faad3;fill-opacity:1;fill-rule:nonzero;stroke:none"
             id="path188" /></g><g
           id="g190"
           transform="translate(416.6523,83.4639)"><path
             d="m 0,0 c -1.072,0 -1.951,-0.489 -2.64,-1.466 -0.688,-0.977 -1.046,-2.182 -1.074,-3.615 h 7.102 v 0.655 c 0,1.272 -0.299,2.327 -0.897,3.166 C 1.894,-0.42 1.062,0 0,0 m 0.242,-14.473 c -1.66,0 -3.016,0.624 -4.07,1.871 -1.053,1.248 -1.579,2.839 -1.579,4.775 v 2.561 c 0,1.945 0.528,3.56 1.587,4.846 1.057,1.286 2.331,1.928 3.82,1.928 1.613,0 2.866,-0.574 3.758,-1.722 0.891,-1.149 1.337,-2.692 1.337,-4.631 V -6.532 H -3.714 V -7.81 c 0,-1.493 0.356,-2.735 1.068,-3.726 0.71,-0.991 1.673,-1.486 2.888,-1.486 0.845,0 1.572,0.148 2.185,0.445 0.612,0.297 1.136,0.718 1.572,1.264 l 0.697,-1.205 c -0.464,-0.595 -1.064,-1.07 -1.8,-1.424 -0.735,-0.354 -1.62,-0.531 -2.654,-0.531"
             style="fill:#0faad3;fill-opacity:1;fill-rule:nonzero;stroke:none"
             id="path192" /></g><g
           id="g194"
           transform="translate(426.208,76.5474)"><path
             d="m 0,0 c 0,-1.85 0.292,-3.318 0.875,-4.405 0.584,-1.086 1.474,-1.629 2.669,-1.629 0.834,0 1.534,0.228 2.099,0.683 0.564,0.455 1.012,1.091 1.344,1.907 V 4.099 C 6.675,4.924 6.238,5.595 5.679,6.112 5.118,6.63 4.417,6.888 3.572,6.888 2.367,6.888 1.471,6.281 0.883,5.066 0.294,3.852 0,2.263 0,0.299 Z m -1.736,0.299 c 0,2.467 0.432,4.438 1.295,5.913 C 0.422,7.687 1.632,8.425 3.188,8.425 4.032,8.425 4.77,8.226 5.4,7.827 6.032,7.429 6.561,6.865 6.987,6.134 v 8.809 H 8.695 V -7.258 H 7.187 L 7.045,-5.266 C 6.617,-6.006 6.082,-6.573 5.437,-6.966 4.791,-7.36 4.036,-7.557 3.174,-7.557 c -1.537,0 -2.74,0.685 -3.608,2.057 -0.868,1.371 -1.302,3.204 -1.302,5.5 z"
             style="fill:#0faad3;fill-opacity:1;fill-rule:nonzero;stroke:none"
             id="path196" /></g><path
           d="m 441.001,69.29 h -1.722 v 15.398 h 1.722 z m 0,19.781 h -1.722 v 2.419 h 1.722 z"
           style="fill:#0faad3;fill-opacity:1;fill-rule:nonzero;stroke:none"
           id="path198" /><g
           id="g200"
           transform="translate(450.2021,70.4419)"><path
             d="m 0,0 c 0.892,0 1.674,0.322 2.348,0.968 0.673,0.645 1.01,1.537 1.01,2.676 H 4.867 L 4.909,3.558 C 4.938,2.135 4.459,0.944 3.473,-0.014 2.485,-0.973 1.328,-1.451 0,-1.451 c -1.774,0 -3.138,0.633 -4.092,1.9 -0.953,1.266 -1.429,2.896 -1.429,4.888 v 2.391 c 0,1.983 0.476,3.612 1.429,4.888 0.954,1.276 2.318,1.914 4.092,1.914 1.432,0 2.616,-0.5 3.551,-1.501 C 4.484,12.028 4.938,10.711 4.909,9.08 L 4.881,9.009 H 3.358 c 0,1.223 -0.32,2.199 -0.961,2.924 C 1.758,12.659 0.958,13.022 0,13.022 -1.329,13.022 -2.297,12.52 -2.903,11.518 -3.51,10.514 -3.814,9.247 -3.814,7.717 V 5.32 c 0,-1.549 0.304,-2.824 0.911,-3.822 C -2.297,0.5 -1.329,0 0,0"
             style="fill:#0faad3;fill-opacity:1;fill-rule:nonzero;stroke:none"
             id="path202" /></g><g
           id="g204"
           transform="translate(463.2158,83.4639)"><path
             d="m 0,0 c -1.073,0 -1.952,-0.489 -2.641,-1.466 -0.687,-0.977 -1.046,-2.182 -1.074,-3.615 h 7.102 v 0.655 c 0,1.272 -0.299,2.327 -0.897,3.166 C 1.893,-0.42 1.062,0 0,0 m 0.241,-14.473 c -1.659,0 -3.016,0.624 -4.069,1.871 -1.054,1.248 -1.58,2.839 -1.58,4.775 v 2.561 c 0,1.945 0.528,3.56 1.587,4.846 1.057,1.286 2.332,1.928 3.821,1.928 1.613,0 2.865,-0.574 3.757,-1.722 0.891,-1.149 1.338,-2.692 1.338,-4.631 v -1.687 h -8.81 V -7.81 c 0,-1.493 0.356,-2.735 1.068,-3.726 0.711,-0.991 1.673,-1.486 2.888,-1.486 0.845,0 1.573,0.148 2.185,0.445 0.612,0.297 1.137,0.718 1.573,1.264 l 0.697,-1.205 c -0.465,-0.595 -1.065,-1.07 -1.8,-1.424 -0.735,-0.354 -1.621,-0.531 -2.655,-0.531"
             style="fill:#0faad3;fill-opacity:1;fill-rule:nonzero;stroke:none"
             id="path206" /></g><path
           d="m 473.483,69.29 h -1.722 v 22.201 h 1.722 z"
           style="fill:#0faad3;fill-opacity:1;fill-rule:nonzero;stroke:none"
           id="path208" /><path
           d="m 479.81,69.29 h -1.851 v 2.362 h 1.851 z"
           style="fill:#0faad3;fill-opacity:1;fill-rule:nonzero;stroke:none"
           id="path210" /><g
           id="g212"
           transform="translate(489.2373,70.4419)"><path
             d="M 0,0 C 0.892,0 1.674,0.322 2.349,0.968 3.022,1.613 3.358,2.505 3.358,3.644 H 4.867 L 4.91,3.558 C 4.938,2.135 4.46,0.944 3.473,-0.014 2.485,-0.973 1.329,-1.451 0,-1.451 c -1.773,0 -3.138,0.633 -4.092,1.9 -0.953,1.266 -1.429,2.896 -1.429,4.888 v 2.391 c 0,1.983 0.476,3.612 1.429,4.888 0.954,1.276 2.319,1.914 4.092,1.914 1.433,0 2.616,-0.5 3.551,-1.501 C 4.485,12.028 4.938,10.711 4.91,9.08 L 4.882,9.009 H 3.358 c 0,1.223 -0.32,2.199 -0.96,2.924 -0.64,0.726 -1.439,1.089 -2.398,1.089 -1.328,0 -2.296,-0.502 -2.903,-1.504 -0.607,-1.004 -0.91,-2.271 -0.91,-3.801 V 5.32 c 0,-1.549 0.303,-2.824 0.91,-3.822 C -2.296,0.5 -1.328,0 0,0"
             style="fill:#0faad3;fill-opacity:1;fill-rule:nonzero;stroke:none"
             id="path214" /></g><path
           d="m 499.419,69.29 h -1.722 v 22.201 h 1.722 z"
           style="fill:#0faad3;fill-opacity:1;fill-rule:nonzero;stroke:none"
           id="path216" /></g></g></g></svg>
